<svg width="338" height="60" viewBox="0 0 338 60" fill="none" xmlns="http://www.w3.org/2000/svg">
<path d="M34.8719 37.5993C31.7341 44.2836 25.7467 48.0033 17.4351 48.0033C6.97438 48.0033 0 42.0743 0 33.2975C0 23.8822 7.43958 17.4314 17.7853 17.4314C25.805 17.4314 30.9788 21.9065 31.9074 29.056V29.928H4.18498C4.12661 30.5665 4.06824 31.2068 4.06824 31.8454C4.06824 40.9706 10.5191 47.0146 19.6443 47.0146C25.7467 47.0146 29.6999 43.8184 31.7907 37.5993H34.8701H34.8719ZM4.24335 29.056H27.8409C27.8409 23.1269 22.8423 18.4785 15.8679 18.4785C9.76555 18.4785 5.23211 22.43 4.24512 29.056H4.24335Z" fill="white"/>
<path d="M96.1839 17.6118C106.703 17.6118 113.621 23.3657 113.621 32.1425C113.621 41.5578 106.181 47.8353 95.0218 47.8353C84.5027 47.8353 77.585 42.0814 77.585 33.3046C77.585 23.8893 85.0245 17.6118 96.1839 17.6118ZM97.231 46.7298C105.077 46.7298 109.611 41.7896 109.611 33.8848C109.611 24.8179 103.623 18.7739 94.2683 18.7739C85.7834 18.7739 81.5966 23.4825 81.5966 31.7923C81.5966 40.9175 87.3505 46.7298 97.231 46.7298Z" fill="white"/>
<path d="M143.899 42.4243C141.748 45.9106 137.621 47.8297 132.508 47.8297C125.127 47.8297 120.128 43.8199 120.128 36.2069V21.7346C120.128 19.9906 119.022 19.1203 117.28 18.6551L115.478 18.1899H121.29C123.034 18.1899 124.196 19.9923 124.196 21.7346V36.2069C124.196 42.6578 127.858 46.3192 134.192 46.3192C139.19 46.3192 142.793 43.995 143.897 40.0417V21.7346C143.897 19.9906 142.793 19.1203 141.049 18.6551L139.247 18.1899H145.059C146.803 18.1899 147.965 19.9923 147.965 21.7346V43.7031C147.965 45.4472 149.069 46.3192 150.813 46.7826L152.616 47.2478H146.803C145.059 47.2478 143.897 45.4454 143.897 43.7014V42.4243H143.899Z" fill="white"/>
<path d="M155.868 10.6348H159.936V15.2849C159.936 16.8539 158.774 17.9594 156.448 18.1911H172.314V19.0631H162.261C160.516 19.0631 159.935 19.645 159.935 21.1556V37.4869C159.935 43.3576 162.841 46.4954 168.246 46.4954C173.013 46.4954 174.117 43.7644 174.117 36.0931H178.185C178.185 43.0091 173.71 47.7177 166.212 47.7177C159.993 47.7177 155.866 44.1146 155.866 37.4869V21.1556C155.866 19.0631 154.007 18.1911 149.474 18.1327C154.587 17.901 155.866 16.7371 155.866 10.6348H155.868Z" fill="white"/>
<path d="M188.183 43.413C188.183 45.1571 189.287 46.5509 191.031 46.9011L192.833 47.2496H179.466L181.269 46.9011C183.013 46.5527 184.116 45.1571 184.116 43.413V21.7346C184.116 19.9906 183.011 19.1203 181.269 18.6551L179.466 18.1899H185.279C187.023 18.1899 188.185 19.9923 188.185 21.7346V43.413H188.183Z" fill="white"/>
<path d="M230.667 58.6975L232.47 59.0459H219.103L220.905 58.6975C222.65 58.349 223.753 56.9534 223.753 55.2094V41.6675C221.137 45.3872 216.662 47.7698 210.618 47.7698C201.958 47.7698 194.694 42.6562 194.694 33.7061C194.694 24.756 201.61 17.5481 210.91 17.5481C215.967 17.5481 220.615 19.1754 223.755 22.43V21.6747C223.755 19.9307 224.917 17.9549 226.661 18.0133L232.473 18.1884L230.671 18.5952C228.927 19.002 227.823 19.9324 227.823 21.6765V55.2112C227.823 56.9552 228.929 58.349 230.671 58.6992L230.667 58.6975ZM223.751 33.2409C223.751 24.8709 216.429 19.0604 208.697 19.0604C202.071 19.0604 198.295 23.7106 198.295 30.7999C198.295 39.6917 204.687 46.376 212.941 46.376C218.229 46.376 221.369 44.05 223.751 39.9818V33.2409Z" fill="white"/>
<path d="M261.295 42.4243C259.144 45.9106 255.017 47.8297 249.904 47.8297C242.522 47.8297 237.524 43.8199 237.524 36.2069V21.7346C237.524 19.9906 236.418 19.1203 234.676 18.6551L232.874 18.1899H238.686C240.43 18.1899 241.592 19.9923 241.592 21.7346V36.2069C241.592 42.6578 245.253 46.3192 251.587 46.3192C256.586 46.3192 260.189 43.995 261.293 40.0417V21.7346C261.293 19.9906 260.189 19.1203 258.445 18.6551L256.643 18.1899H262.455C264.199 18.1899 265.361 19.9923 265.361 21.7346V43.7031C265.361 45.4472 266.465 46.3192 268.209 46.7826L270.011 47.2478H264.199C262.455 47.2478 261.293 45.4454 261.293 43.7014V42.4243H261.295Z" fill="white"/>
<path d="M306.277 37.6002C303.139 44.2845 297.151 48.0043 288.84 48.0043C278.379 48.0043 271.403 42.0752 271.403 33.3002C271.403 23.8849 278.843 17.4341 289.188 17.4341C297.208 17.4341 302.382 21.9091 303.31 29.0586V29.9307H275.588C275.53 30.5692 275.471 31.2095 275.471 31.848C275.471 40.9733 281.922 47.0173 291.047 47.0173C297.15 47.0173 301.103 43.8211 303.194 37.6019H306.273L306.277 37.6002ZM275.646 29.0569H299.244C299.244 23.1279 294.245 18.4794 287.271 18.4794C281.169 18.4794 276.635 22.4309 275.648 29.0569H275.646Z" fill="white"/>
<path d="M324.116 17.6136C328.65 17.6136 332.136 18.8907 335.508 21.6818V28.0743C333.067 21.6235 329.695 18.4838 323.128 18.4838C317.607 18.4838 314.353 20.2862 314.353 23.3657C314.353 26.6203 317.839 28.0743 324.116 29.178C333.473 30.8053 337.427 33.5363 337.427 38.2449C337.427 43.5336 332.255 47.8353 324.001 47.8353C316.272 47.8353 310.808 44.0006 309.181 37.548H314.063C314.528 43.4186 317.956 46.9049 324.698 46.9049C330.569 46.9049 333.475 43.9404 333.475 39.7554C333.475 36.0356 331.149 34.7002 323.653 33.2462C314.818 31.5606 310.576 29.7016 310.576 25.7483C310.576 21.1565 316.33 17.6118 324.118 17.6118L324.116 17.6136Z" fill="white"/>
<path d="M193.351 7.71014C191.158 8.08867 189.364 8.9766 187.967 10.374C186.568 11.7731 185.717 13.5295 185.416 15.645C185.114 13.5313 184.283 11.7908 182.922 10.4306C181.562 9.07035 179.786 8.20187 177.595 7.82334C179.785 7.52265 181.58 6.67186 182.979 5.27274C184.376 3.87538 185.227 2.11896 185.53 0.00170898C185.83 2.11896 186.663 3.85593 188.024 5.21613C189.384 6.57634 191.158 7.40945 193.351 7.71014Z" fill="#FF0000"/>
<path d="M57.8277 17.4626C51.7819 17.4626 47.3086 19.8452 44.6925 23.565V9.96466C44.6925 8.22062 43.5304 6.41821 41.7864 6.41821H40.6243V9.96289V43.556C40.6243 45.3 39.5206 46.2887 37.7765 46.6938L35.9741 47.1006H41.2045C43.2386 47.1006 44.6925 45.5901 44.6925 43.5542V42.7989C47.8304 46.0535 52.4806 47.6808 57.5376 47.6808C66.8362 47.6808 73.7522 40.648 73.7522 31.5228C73.7522 22.3976 66.4877 17.4591 57.8277 17.4591V17.4626ZM59.745 46.1738C52.0154 46.1738 44.6925 40.3615 44.6925 31.9933V25.2524C47.0751 21.1842 50.213 18.8582 55.5034 18.8582C63.7567 18.8582 70.1491 25.5425 70.1491 34.4342C70.1491 41.5254 66.371 46.1738 59.745 46.1738Z" fill="white"/>
</svg>
