<svg width="22" height="26" viewBox="0 0 22 26" fill="none" xmlns="http://www.w3.org/2000/svg">
<path d="M5.2982 25.5131C4.77939 25.1721 4.31958 24.7507 3.93644 24.2651C3.51499 23.764 3.1245 23.2381 2.7671 22.6905C1.9284 21.4765 1.27068 20.1497 0.814095 18.7507C0.265609 17.1257 0 15.5681 0 14.0447C0 12.3433 0.372511 10.8581 1.10108 9.61009C1.64117 8.63463 2.43523 7.81948 3.40111 7.24896C4.33716 6.6745 5.4127 6.36013 6.51441 6.33896C6.90007 6.33896 7.31535 6.39421 7.75611 6.49984C8.0727 6.5884 8.45837 6.72815 8.92956 6.90202C9.52903 7.13034 9.85878 7.27009 9.97061 7.30421C10.3217 7.43096 10.617 7.48621 10.8488 7.48621C11.0248 7.48621 11.2732 7.43096 11.5552 7.34646C11.7139 7.29121 12.0133 7.19371 12.4417 7.01252C12.866 6.85977 13.1999 6.72896 13.4655 6.63146C13.8725 6.51284 14.2664 6.40315 14.6175 6.3479C15.0338 6.28306 15.4563 6.26588 15.8765 6.29671C16.6048 6.34374 17.3221 6.49622 18.0055 6.74927C19.123 7.19371 20.0267 7.88759 20.6994 8.87396C20.4151 9.0471 20.1483 9.24681 19.9026 9.47034C19.3677 9.93881 18.9122 10.4888 18.5532 11.0994C18.0839 11.9339 17.8405 12.8739 17.8468 13.8286C17.864 15.001 18.1683 16.0337 18.7678 16.9266C19.2085 17.5884 19.7813 18.1544 20.4511 18.5898C20.794 18.8181 21.0892 18.975 21.3721 19.0806C21.2397 19.4868 21.0982 19.8801 20.9313 20.2701C20.5527 21.1447 20.0939 21.9831 19.5605 22.775C19.0852 23.4567 18.7127 23.9645 18.4298 24.3025C17.989 24.8185 17.5647 25.2125 17.1363 25.4871C16.6651 25.7959 16.1084 25.9608 15.5426 25.9608C15.1595 25.9754 14.7764 25.9296 14.4078 25.8251C14.0913 25.7195 13.7779 25.605 13.4696 25.4741C13.149 25.3287 12.8184 25.2057 12.4803 25.1061C11.6446 24.894 10.7684 24.8926 9.93196 25.102C9.58906 25.1995 9.25931 25.3133 8.93367 25.453C8.47564 25.6431 8.17138 25.7707 7.9954 25.8251C7.64427 25.9267 7.27999 25.9901 6.91159 26.0112C6.34172 26.0112 5.8105 25.8503 5.28422 25.5245L5.2982 25.5131ZM12.8142 5.51346C12.0692 5.88152 11.3579 6.03834 10.6515 5.98715C10.5405 5.28434 10.6515 4.56527 10.9467 3.77796C11.198 3.11095 11.5694 2.49436 12.0429 1.95796C12.5428 1.39329 13.1495 0.930454 13.8289 0.595398C14.5526 0.227336 15.2425 0.0282734 15.902 -0.000976562C15.9875 0.735148 15.902 1.45909 15.6282 2.24152C15.3748 2.93319 15.0041 3.57722 14.532 4.14602C14.0502 4.71147 13.4589 5.1761 12.7928 5.51265L12.8142 5.51346Z" fill="black"/>
</svg>
