<svg width="27" height="26" viewBox="0 0 27 26" fill="none" xmlns="http://www.w3.org/2000/svg">
<path d="M6.49767 15.4656L5.66497 18.537L2.62151 18.6006C1.71196 16.9338 1.19604 15.0266 1.19604 13C1.19604 11.0403 1.67841 9.1922 2.53343 7.56494H2.53409L5.24363 8.05576L6.43057 10.7169C6.18215 11.4325 6.04674 12.2007 6.04674 13C6.04684 13.8675 6.20588 14.6987 6.49767 15.4656Z" fill="#FBBB00"/>
<path d="M24.909 10.792C25.0463 11.5069 25.118 12.2452 25.118 12.9998C25.118 13.8459 25.0279 14.6712 24.8564 15.4673C24.2742 18.1764 22.7527 20.542 20.6451 22.216L20.6445 22.2154L17.2317 22.0433L16.7486 19.0641C18.1471 18.2537 19.2401 16.9855 19.8158 15.4673H13.4199V10.792H19.9091H24.909Z" fill="#518EF8"/>
<path d="M20.6446 22.2153L20.6452 22.216C18.5954 23.8439 15.9916 24.8179 13.1571 24.8179C8.60208 24.8179 4.64182 22.3023 2.62158 18.6004L6.49774 15.4653C7.50784 18.1289 10.1084 20.0251 13.1571 20.0251C14.4675 20.0251 15.6952 19.6751 16.7487 19.064L20.6446 22.2153Z" fill="#28B446"/>
<path d="M20.7917 3.90241L16.9169 7.03681C15.8266 6.36345 14.5378 5.97447 13.1571 5.97447C10.0393 5.97447 7.39013 7.95757 6.43063 10.7167L2.5341 7.56475H2.53345C4.52411 3.77255 8.53432 1.18164 13.1571 1.18164C16.0592 1.18164 18.7202 2.20308 20.7917 3.90241Z" fill="#F14336"/>
</svg>
